<svg xmlns="http://www.w3.org/2000/svg" viewBox="0 0 64 64" role="img" aria-label="Premium monogram R favicon">
  <defs>
    <linearGradient id="bg" x1="0" y1="0" x2="1" y2="1">
      <stop offset="0" stop-color="#171a20"/>
      <stop offset="1" stop-color="#0b0d12"/>
    </linearGradient>
    <linearGradient id="gold" x1="0" y1="0" x2="1" y2="1">
      <stop offset="0" stop-color="#fbe7ae"/>
      <stop offset="0.42" stop-color="#deb96a"/>
      <stop offset="1" stop-color="#8b652f"/>
    </linearGradient>
  </defs>

  <rect x="2" y="2" width="60" height="60" rx="14" fill="url(#bg)"/>
  <rect x="5" y="5" width="54" height="54" rx="11" fill="none" stroke="rgba(255,255,255,0.08)"/>

  <path d="M32 10 47 18v16c0 10.2-5.6 16.3-15 20.8C22.6 50.3 17 44.2 17 34V18Z" fill="none" stroke="url(#gold)" stroke-width="2.3"/>

  <path d="M23 20v24" fill="none" stroke="url(#gold)" stroke-width="3.2" stroke-linecap="round"/>
  <path d="M23 20h12.1c4.9 0 7.9 2.9 7.9 7.2S40 34.5 35.1 34.5H23" fill="none" stroke="url(#gold)" stroke-width="3.2" stroke-linecap="round" stroke-linejoin="round"/>
  <path d="M33.8 34.5 42.6 46" fill="none" stroke="url(#gold)" stroke-width="3" stroke-linecap="round"/>

  <circle cx="24" cy="14.2" r="1.15" fill="#fbe7ae"/>
  <circle cx="40" cy="14.2" r="1.15" fill="#fbe7ae"/>
</svg>
